<svg xmlns="http://www.w3.org/2000/svg" xml:space="preserve" id="Layer_1" x="0" y="0" style="enable-background:new 0 0 372.889 358.667" version="1.1" viewBox="0 0 372.9 358.7"><style>.st2{fill:#fae149}.st4{fill:#f4c21c}.st6{fill:#cc8f2b}.st8{fill:#f3d349}.st9{fill:#010202}.st11{fill:#fbfbfb}</style><path d="M305 329.3c6.4-3.2 12.5-7 18.2-11.4-99 36.5-212.5 12.5-297.6-45.8 38.1 43.5 97.3 62.1 153 69.1 32.2 3.7 68.3 6 100.6-2.4a147 147 0 0 0 18-6.2c2.7-1 5.3-2.1 7.8-3.3z" style="fill:#fee69f"/><path d="m365.7 272.7-.2 1c.2-.3.2-.6.2-1z" style="fill:#f5c21c"/><path d="m17 272.6.4.4c0-.3 0-.4-.3-.4zM17.5 273.1c0 .2.2.3.3.5 0-.3 0-.5-.3-.5zM17.9 273.7l.3.4c0-.3 0-.4-.3-.4zM18.5 274.2h-.2l.3.4-.1-.4zM18.7 274.7c0 .2.2.3.3.5 0-.3 0-.5-.3-.5zM19 275.3l.4.4c0-.3 0-.4-.3-.4zM19.5 275.8c0 .2.2.3.3.4 0-.3 0-.4-.3-.4zM19.9 276.4zM20.3 276.9l.3.4c.1-.3 0-.4-.3-.4zM20.7 277.4l.3.4c.1-.3 0-.4-.3-.4zM21.1 278zM21.5 278.5z" class="st2"/><path d="M21.9 279h0" style="fill:none;stroke:#fae149;stroke-width:0;stroke-linecap:round;stroke-linejoin:round"/><path d="M365 265.2h1.7c2.8-17 6-35.1-2.8-51-48.8-97-271.9-128-344-46.5A51.4 51.4 0 0 0 7.3 194c-2.1 15-6 30.4-3.4 45.6-.3.4-.3 1-.1 1.7l.7 2a71 71 0 0 0 10 25l.3-.2-.4.2c.9 1.2 1.2 2.7 2.4 3.7l.2.5v.1c.4 0 .5.1.4.4v.1c.4 0 .5.2.4.5.4 0 .5.2.4.5v.1h.3c.1 0 .2.2.1.4v.1c.4 0 .5.2.4.5.4 0 .5.2.4.5v.1c.4 0 .5.1.4.4l.1.2c.3 0 .4 0 .3.4h.1c.3 0 .4.2.3.5l.1.1c.3 0 .4.1.3.4l.1.2c.3 0 .4 0 .3.4h.1c.3 0 .4.2.3.5l.1.1c55.6 69.1 267.6 100.4 327.8 27.4a74.1 74.1 0 0 0 15.8-32.7l.2-1 1-7.5h-1.6zm-186.3 76c-55.8-7-115-25.6-153-69.1 85 58.3 198.5 82.3 297.5 45.8l.2-.2-.2.2c-5.7 4.5-11.8 8.2-18.2 11.4-8.2 4.1-16.8 7.2-25.8 9.5-32.3 8.3-68.4 6.1-100.5 2.4zm84-58a159 159 0 0 0-.5.1l.4-.1zm1.3-4.4zm-48.3 4.4-.3.2.3-.2zm-2.6 0zm-124.2-151c-1 .4-3 .3-2.8 1.5-.1-1.2 1.8-1.1 2.8-1.5zm99.7-7-1.1-.1 1.1.1zM86.2 134c0 .2.3.3.5.4l.5-.1 6.2-1.9a29 29 0 0 1 8.3-1.4 87 87 0 0 1 5.6-.8l.3-.1c1-.4 2-.6 3.1-.7 1.1-.2 2.3-.3 3.4-.2 12.2-2.1 24.7-2.2 37-2.5a353.3 353.3 0 0 1 21 .4c2.1 0 4.2.3 6.2.6 16.9 1.2 33 3.5 48.4 7 .3.3.7.6 1.3.8a656 656 0 0 1 31.1 9.3c10.1 3.4 20 7.5 29.6 12 4.5 2 9 4.2 13.4 6.3 5.6 3.4 10.8 7.2 16.5 10.5.6.3 1.2.4 1.7.3 15.5 11.8 27.6 26.5 29.4 41.6 1.7 13.7-5.1 26.3-20.2 37.4l-.7.6-.4-.4c-22.1 15.6-57.7 20.7-81.3 23a241.7 241.7 0 0 0-23.2.7c-46.4-1.3-93.2-10-135-30.7-16.2-8.3-36-20.7-47.1-36.7l-.7.3-.5-.7c-8.6-12.6-10.9-24.6-6.8-36 8.3-23.1 39.6-35 52.4-39zm134.7-1.1-1-.2 1 .2zm-4.9-1-3.5-.5 3.5.6zm131.8 173.2c-4.2-.7-8.4-1-12.6-1.1-7.9-.3-15.8 0-23.6-.2-15.4-.7-31.2-2.2-46.3-.1-.3 0-.5.1-.6.3l-.3.7c-.2.4-.3.9-.9 1h-1c-.6 0-1 0-1.2.2-.7.3-.4 1-.2 1.8.3.8.6 1.5-.1 1.7-.4.1-1.3 0-2.8-.4a40 40 0 0 1-6.5 1.8H251.1c-5 1-10.4 1.5-15.5 2.7-12.9 3-25.7 6.6-38.6 8.8a127 127 0 0 1-23.7 1.8 84.1 84.1 0 0 1-20.4-4c-3.4-3.5-9-2-12.8-4.4a7 7 0 0 1-1-.7c-1-1.2-2.2-1.4-3.5-1.7-1.1-.2-2.3-.3-3.3-1-3-3.1-7.4-2.9-10.8-5.2a90 90 0 0 0-5.8-3h-.2.2l5.8 3c3.4 2.3 7.9 2 10.8 5.2 1 .7 2.2.8 3.3 1 1.3.3 2.5.5 3.5 1.7l1 .7c3.8 2.5 9.4 1 12.8 4.4a81.4 81.4 0 0 0 44 2.2c13-2.2 25.8-5.7 38.7-8.8 5-1.2 10.4-1.6 15.5-2.6h.2l.4-.1c2.2-.5 4.4-1 6.5-1.8 1.5.4 2.3.5 2.8.4.7-.2.4-1 .1-1.7-.2-.7-.5-1.5.2-1.8.2-.2.6-.3 1.1-.3.5.1.8.2 1.1.1.5-.1.7-.6.9-1 0-.3.1-.5.3-.7.1-.2.3-.3.5-.3 15.2-2 31-.6 46.4 0 7.8.3 15.7 0 23.6.3 4.2.1 8.4.4 12.6 1.1l1 .1-1-.1zM165.6 126.9z" class="st4"/><path d="m323.2 318 .2-.3-.2.2z" style="fill:#9f6828"/><path d="M33.8 173c-4 11.4-1.8 23.5 6.8 36l.5.7.7-.3.1-.1a230.3 230.3 0 0 1 109.5-25.6c70.6 0 136.6 25.8 176.8 69.1l.2.3.4.4.7-.6c15-11.1 21.9-23.7 20.2-37.4-1.8-15-14-29.8-29.4-41.6-.5.1-1.1 0-1.7-.3-5.6-3.3-11-7.1-16.5-10.5l-13.4-6.3c-9.7-4.5-19.5-8.6-29.6-12a656 656 0 0 0-31-9.3c-.7-.2-1.1-.5-1.4-.9a337.4 337.4 0 0 0-58-7.7h-3.1l-5-.2h-9.5c-12.3.3-24.8.4-37 2.5-1-.1-2.3 0-3.4.2-1 .1-2.1.3-3.1.7h-.3a60.1 60.1 0 0 0-5.6 1 29 29 0 0 0-8.3 1.3 97.3 97.3 0 0 0-6.7 2 .5.5 0 0 1-.5-.4c-12.8 4-44 15.9-52.4 39zm138.8 9.2.5-.3-.5.3z" class="st6"/><path d="m172.6 182.2.5-.3" style="fill:none;stroke:#dfa827;stroke-width:0;stroke-linecap:round;stroke-linejoin:round"/><path d="M164.8 2c-2 21.8-5.1 32.3-28.8 34.2v.1c23 1.5 27.4 13 28.7 34.3 1.8-21.7 5.7-32.7 28.8-34.2-23.1-2.4-27-12-28.7-34.5z" class="st8"/><path d="M176 322.6c-3.1-2.1-.4-6.7-4.3-8.7a14.5 14.5 0 0 0-13.8-2.1c-2.7.8-3 4.2-5.3 5-2.5.9-5 1.5-6.8 3.5-7.5 9.6 3.3 11.1 2 14.8-2.5 6.5 2.3 18.2 9.6 10.4 1.4 6 10.6 7.1 11.5.3 1-2.3-.3-8.8 3.8-7.4 10.7 1.7 10.8-11 3.3-15.8zm-19.4 21.7c-.8 1.2-2 2-3.8 2.2h-.1c-1.9.3-2.5-.7-3-2l-.5-1.5-.1-.5a14 14 0 0 1-.5-5.7v-.2l.3-.6.3-.7c.5-.8 1.4-1.4 2.5-1.8h.1l.3-.1c1.5-.4 3.4-.6 5.8-.7.9-.1 1.7 0 1.6.6l-.4 1c-1 2.9-.9 7.3-2.5 10zm12-4.3c0 6.9-3.4 9.7-6.1 9.2h-.1l-.1-.1c-1.4-.4-2.6-1.6-3-3.6-.3-1.4-.3-3.1.4-5.2h-.2c.8-2 1-5 2-6.3h.1l.3-.3.1-.1h.1c.7-.4 1.8-.2 3.4 1 1.2.5 2.1 1.1 2.7 2 .6.8.7 1.9.3 3.4zm11.4-7c-1 2.1-2.1 3.4-3.4 3.9-5.6 2.2-13.6-8.3-20.7-5.5-2.8 1-5 1-6.9.4-2.7-.9-4.2-3-4.3-5.4v-.2c0-2.7 1.8-5.6 5.6-7l2-.7c2.4 1.6 5 3.1 7.5 4.3 3.6 1.6 7.4 2.2 11.6.2.7-.3 1.3-.3 2-.2 1.8.5 3.6 2.2 4.9 4.2 1.2 2 2 4.4 1.7 6z" class="st9"/><path d="M171.1 297.3c-6.4 28.5 43.9 37.8 48.4 8.5 5.1-31.2-42.6-36.5-48.4-8.5zm19.4 24.5c-9-1.1-15.5-7.7-17.6-15.4a19.3 19.3 0 0 1 6-20 22.4 22.4 0 0 1 10.8-5.6c2-.5 4-.7 6.1-.7h.2c2 0 4 .3 6 .8h.1c1.2.3 2.3.7 3.4 1.2l.5.2.6.3a19.2 19.2 0 0 1 8.2 7.3 20.5 20.5 0 0 1 2 19.7 21.7 21.7 0 0 1-26.3 12.2zM159.7 283.6c-5.7-14-26.5-19-38.7-9.4-15.7 11.7-8.6 37.2 11.2 39.8 17.4 4.9 34.6-13.4 27.5-30.4zm-22.5 29.6h-.5c-6.1-.2-11-2-14.6-4.6l-.4-.3-.5-.4a21.1 21.1 0 0 1-6.7-21.1v-.2l.2-.5.2-.5v-.3c1.3-4.3 4-8.1 7.8-10.8l.5-.3.4-.4c4.5-2.7 10.4-4 17.6-2.6C157 273.7 162 287 158.7 298a20.9 20.9 0 0 1-21.5 15.2z" class="st9"/><path d="M180 333c.3-1.6-.5-4-1.7-6-1.3-2-3.1-3.7-5-4.2-.6-.1-1.2 0-1.8.2h-.1c-4.1 2-8 1.4-11.6-.2-2.6-1.2-5-2.7-7.5-4.3l-2 .6c-3.8 1.5-5.6 4.4-5.6 7v.3c0 2.3 1.6 4.5 4.3 5.4 1.8.5 4.1.5 7-.4 7-2.8 15 7.7 20.6 5.5 1.3-.5 2.4-1.8 3.4-4z" style="fill:#f5d2a3"/><path d="M165.5 334.5c-1.6-1.1-2.7-1.3-3.4-1l-.2.2-.3.2v.1c-1.1 1.3-1.3 4.2-2.1 6.2h.2c-.7 2.2-.7 4-.4 5.3.4 2 1.6 3.2 3 3.6h.2c2.7.6 6-2.2 6-9 .4-1.6.3-2.7-.3-3.6a6.7 6.7 0 0 0-2.7-2zM157.9 332.7c-2.4 0-4.3.3-5.8.7h-.3v.1c-1.2.4-2 1-2.6 1.8a4 4 0 0 0-.5 1.3v.2a14 14 0 0 0 .4 5.7v.5c.3.5.4 1 .6 1.6.5 1.2 1.1 2.2 3 2l.1-.1c1.8-.2 3-1 3.7-2.1v-.1c1.7-2.7 1.6-7.1 2.5-10l.5-1c0-.7-.7-.7-1.6-.6zM214.8 289.9c-.3-.5-.5-1-.9-1.4a19.2 19.2 0 0 0-7.3-6l-.6-.2-.5-.2c-1.1-.5-2.2-.9-3.4-1.1h-.1c-2-.6-4-.8-6-.9h-.2c-2 0-4.1.2-6.1.7a22.4 22.4 0 0 0-12.8 7.6c-4.6 5.3-5.7 12-4 18a21.1 21.1 0 0 0 17.6 15.4c11.8 3.4 22.3-3 26.2-12.2 2.6-6 2.5-13.2-1.9-19.7zM190.1 302c-1 5.5-5.8 7-9.5 5.4l-.6-.2-.1-.1-.4-.3-1-.7-.4-.4-.1-.1a6.4 6.4 0 0 1-1.5-3.1v-.8l-.1-.5v-1.1l.2-.6v-.6l.2-.5.2-.4.1-.4v-.3c.4-.6.7-1.2 1.2-1.7 1-1.1 2-1.8 3.3-2.2h.7l.3-.1h.3c4.1-.4 8.5 3 7.2 8.7zM141.2 271.2c-7.2-1.3-13.1-.1-17.6 2.6l-.4.3-.5.4a20.5 20.5 0 0 0-7.8 10.8v.3l-.2.5-.1.5v.2c-1.8 7.4.3 15.8 6.6 21.1l.5.4.4.3c3.6 2.7 8.5 4.4 14.6 4.6h.5c11.4.5 19-6.7 21.5-15.2 3.2-11-1.8-24.3-17.5-26.8zm-9.2 21c-1 5.5-6 7-9.6 5.4l-.4-.2h-.2c-.2-.2-.3-.3-.5-.3l-.1-.1a6.7 6.7 0 0 1-3-4.4v-2.9l.2-.5c0-.3 0-.6.2-.9v-.2l.2-.6.1-.1c.2-.5.4-.9.7-1.2l.2-.3.2-.3.1-.1c.5-.5 1-1 1.5-1.2l.6-.3 1.2-.5h.4l.3-.1h1.3c4 0 7.8 3.3 6.6 8.7z" class="st11"/><path d="M183 293.3h-.4l-.3.1a7 7 0 0 0-.5.1h-.2c-1.2.4-2.4 1-3.3 2.1-.5.6-.8 1.2-1.1 1.8l-.1.3-.1.4-.2.4-.1.5v.3l-.1.3-.1.6v.3l-.1.5v1.1l.1.5c.2 1.2.8 2.2 1.5 3l.1.2.3.3.1.1 1 .7.4.3h.1l.6.3c3.7 1.5 8.5 0 9.5-5.4 1.3-5.8-3-9-7.2-8.8zm4.7 9.6v.7l-.2.2-.1.2v.1l-.2.2c-.3.3-.5.4-.8.4h-.6c-.5 0-.8-.2-1-.5l-.1-.2c-.1-.4-.2-.7-.1-1.1a2.6 2.6 0 0 1 .4-1.2c.3-.3.6-.5 1-.5l.5.1c.8.2 1.2.9 1.2 1.6zM125.4 283.3l-1.3.1h-.3l-.4.1-1.2.4-.5.3h-.1l-1.5 1.3v.1l-.3.3-.2.3c-.3.3-.5.7-.7 1.2v.1l-.3.6v.2l-.2.9-.1.5-.1.4v2.5c.4 2 1.6 3.4 3 4.4h.1l.5.3.2.1.4.2c3.6 1.5 8.5 0 9.6-5.5 1.2-5.4-2.6-8.6-6.6-8.8zm4.1 9.8c0 .5-.2 1.1-.6 1.5a1.4 1.4 0 0 1-1.3.3 1.4 1.4 0 0 1-.6-.3l-.4-.5-.1-.3v-.6c0-1 .6-2.1 1.7-2 1 .1 1.4 1 1.4 1.8z" class="st9"/><path d="M186.5 301.3h-.5c-.4-.1-.7 0-1 .4a2.6 2.6 0 0 0-.5 1.2c0 .4 0 .7.2 1l.1.3c.2.3.5.5 1 .6a1.6 1.6 0 0 0 1.3-.4l.2-.3h.1l.1-.3.1-.2.1-.7c0-.7-.4-1.4-1.2-1.6zM128.2 291.2c-1-.1-1.7 1-1.8 2a2.2 2.2 0 0 0 .2 1 1.4 1.4 0 0 0 .7.6h.3l.4.1h.3l.6-.3c.4-.4.6-1 .6-1.5v-.1c0-.8-.3-1.7-1.3-1.8z" class="st11"/><path d="M105.9 18.4c-4.7 45.5-5.6 73-56.5 78.2v.4c51 5.1 52.2 33.3 56.2 78 4.5-45.8 6.3-73.2 56.4-78-50.7-7.2-51.7-30.7-56.1-78.6zM150.5 137c-.3 9.5-4.7 14.2-14.3 14.3v.1c9.1 0 14.3 5.1 14.2 14.3.4-9.4 4.7-14.1 14.4-14.3-9.5-.4-14.2-4.7-14.3-14.3z" class="st8"/><path d="M184.2 135.2c-2.8-1-5.6-1.5-8.6-1.9-1.2-.1-2.6 1.3-2.5 2.5.4 3.4 1 6.8 1.2 10.2a34 34 0 0 1-.6 9.6c-1.3 6.5-3.6 12.8-4.3 19.4h5c-.7-7.1 2.3-13.8 4-20.5 1-3.7 1.3-7.3 1.2-11-.1-2-.3-3.9 0-5.7.4-2 1.3-3.8 1.3-5.9 0-3.2-5-3.2-5 0 0 1-.3 1.7-.6 2.6l-.6 3c-.3 2-.2 3.8-.1 5.7.1 3.7-.3 7.2-1.2 10.8-1.8 6.9-4.7 13.7-4 21a2.5 2.5 0 0 0 5 0c.7-6.4 3.1-12.6 4.3-19 .6-3.3.9-6.6.6-10l-1.2-10.2-2.5 2.5c2.5.3 5 1 7.3 1.7 3 1 4.4-3.9 1.3-4.8z" class="st6"/><path d="M172.7 135.2a37 37 0 0 0 29.5 25.2c1.4.2 2.7-.3 3.1-1.7.3-1.2-.4-3-1.7-3.1a32 32 0 0 1-26-21.7c-1-3-5.8-1.7-4.9 1.3zM149.8 132h6c1.3 0 2.6-1.2 2.5-2.5 0-1.4-1-2.4-2.5-2.5h-6.3c-.7 0-1.3.2-1.8.7-.4.5-.7 1.2-.7 1.8 0 .6.2 1.3.7 1.8.5.4 1 .6 1.8.7h.3a2.5 2.5 0 0 0 2.5-2.5c0-.6-.3-1.3-.8-1.7-.5-.5-1-.7-1.7-.8h-.3v5h6.3v-5h-6c-.7 0-1.3.3-1.8.8-.4.4-.8 1.1-.7 1.7 0 1.4 1 2.5 2.5 2.5zM342.4 198.6c-1-3-3-5.3-4.9-7.8-2-2.4-3.9-4.8-6.1-7-4.5-4.7-10-8-15.5-11-2.8-1.7-5.4 2.7-2.6 4.2 5 2.9 10.1 5.8 14.2 10 2.1 2 4 4.2 5.8 6.5 1.6 2 3.4 4 4.3 6.5.4 1.2 1.7 2 3 1.7 1.3-.3 2.3-1.8 1.8-3z" class="st6"/><path d="m315.3 177.3 2 1.4c-.4-.2 0 0 0 .2a43 43 0 0 1 5 4.2c2.3 2.2 4.4 4.6 6.3 7.1.8 1 2.7 1 3.5 0 1-1 1-2.4 0-3.5-4-5.3-8.9-9.9-14.3-13.7-1-.8-2.8-.3-3.4.9-.7 1.3-.3 2.6.9 3.4zM248.3 181.3c7.5 4.2 15.2 8.1 23 11.7 3 1.4 5.3-2.4 2.6-4.3-4.1-2.8-8.6-5-13.1-7.3l-14.3-7.3c-2.9-1.5-5.1 2.5-2.5 4.3l4.3 2.9c2.7 1.7 5.2-2.6 2.5-4.3l-4.3-3-2.5 4.4 14.3 7.3c4.4 2.3 9 4.5 13 7.3 1-1.4 1.8-2.9 2.6-4.3-7.9-3.6-15.6-7.6-23.1-11.7-2.8-1.6-5.4 2.7-2.5 4.3z" class="st6"/></svg>
